<svg xmlns="http://www.w3.org/2000/svg" aria-hidden="true" style="position:absolute;width:0;height:0;overflow:hidden">
  <defs>
    <symbol id="icon-arrow-forward" viewBox="0 0 34 32">
      <path fill="#fff" d="m16.8 5.333-1.88 1.88 7.44 7.453H6.133v2.667H22.36l-7.44 7.453 1.88 1.88 10.667-10.667L16.8 5.332z" style="fill:var(--color1, #fff)"/>
    </symbol>
    <symbol id="icon-check" viewBox="0 0 34 32">
      <path fill="#fff" d="M16.5 30.416c7.962 0 14.416-6.454 14.416-14.416S24.462 1.584 16.5 1.584C8.538 1.584 2.084 8.038 2.084 16S8.538 30.416 16.5 30.416z" style="fill:var(--color1, #fff)"/>
      <path fill="#19ac11" d="M16.484 1.584A14.402 14.402 0 0 0 6.302 26.167a14.404 14.404 0 0 0 15.693 3.122 14.408 14.408 0 0 0 8.89-13.304 14.403 14.403 0 0 0-14.4-14.4zm6.768 10.336-7.104 9.856a1.456 1.456 0 0 1-1.888.4l-4.08-2.384a1.455 1.455 0 0 1-.496-2 1.455 1.455 0 0 1 2-.496l2.896 1.728 6.4-8.784a1.44 1.44 0 0 1 2.337 1.6l-.064.08z" style="fill:var(--color2, #19ac11)"/>
    </symbol>
    <symbol id="icon-cross" viewBox="0 0 32 32">
      <path fill="#e90000" d="M3.52 30.933.533 27.946 12.48 15.999.533 4.052 3.52 1.065l11.947 11.947L27.414 1.065l2.987 2.987-11.947 11.947 11.947 11.947-2.987 2.987-11.947-11.947L3.52 30.933z" style="fill:var(--color3, #e90000)"/>
    </symbol>
    <symbol id="icon-menu" viewBox="0 0 32 32">
      <path d="M4.885 25.143c-.305 0-.56-.117-.766-.35s-.309-.523-.309-.867c0-.345.103-.634.309-.867s.462-.349.766-.349h22.23c.305 0 .56.117.766.35s.309.523.309.867c0 .345-.103.634-.309.867s-.462.349-.766.349H4.885zm0-7.926c-.305 0-.56-.117-.766-.35S3.81 16.344 3.81 16c0-.345.103-.634.309-.867s.462-.35.766-.35h22.23c.305 0 .56.117.766.35s.309.523.309.867c0 .345-.103.634-.309.867s-.462.349-.766.349H4.885zm0-7.926c-.305 0-.56-.117-.766-.35s-.309-.522-.309-.867.103-.634.309-.867.462-.35.766-.35h22.23c.305 0 .56.117.766.35s.309.522.309.867-.103.634-.309.867-.462.35-.766.35H4.885z"/>
    </symbol>
    <symbol id="icon-close" viewBox="0 0 32 32">
      <path d="m8.533 25.333-1.867-1.867 7.467-7.467-7.467-7.467 1.867-1.867L16 14.132l7.467-7.467 1.867 1.867-7.467 7.467 7.467 7.467-1.867 1.867L16 17.866l-7.467 7.467z"/>
    </symbol>
  </defs>
</svg>
